<?xml version="1.0" standalone="no"?>
<!DOCTYPE svg PUBLIC "-//W3C//DTD SVG 20010904//EN"
 "http://www.w3.org/TR/2001/REC-SVG-20010904/DTD/svg10.dtd">
<svg version="1.0" xmlns="http://www.w3.org/2000/svg"
 width="512.000000pt" height="512.000000pt" viewBox="0 0 512.000000 512.000000"
 preserveAspectRatio="xMidYMid meet">
<metadata>
Created by potrace 1.14, written by Peter Selinger 2001-2017
</metadata>
<g transform="translate(0.000000,512.000000) scale(0.100000,-0.100000)"
fill="#000000" stroke="none">
<path d="M2370 4641 l0 -271 -211 0 -211 0 -185 70 c-102 39 -191 70 -199 70
-12 0 -14 -88 -14 -581 l0 -582 88 6 c94 6 184 32 244 72 38 25 38 25 38 95
l0 70 225 0 225 0 0 -481 0 -482 78 6 c97 8 162 27 232 69 l55 33 5 425 5 425
228 3 227 2 0 -101 0 -102 93 6 c87 6 188 29 250 57 l27 13 0 388 0 388 46 20
c27 12 44 26 42 33 -3 7 -76 67 -162 133 l-158 120 -80 -88 -80 -87 -214 0
-214 0 0 215 c0 175 3 215 14 215 19 0 66 39 66 54 0 9 -51 18 -187 30 -104 9
-207 19 -230 23 l-43 5 0 -271z m0 -661 l0 -320 -225 0 -225 0 0 320 0 320
225 0 225 0 0 -320z m830 0 l0 -320 -232 0 -231 0 6 283 c4 155 7 299 7 320
l0 37 225 0 225 0 0 -320z"/>
<path d="M690 2250 l0 -260 -228 -2 -228 -3 8 -32 9 -33 164 0 c91 0 165 -3
165 -6 0 -3 -16 -39 -35 -80 -52 -114 -155 -265 -245 -358 -79 -82 -90 -99
-70 -111 21 -13 318 151 418 232 l42 34 0 -106 0 -105 -24 6 c-19 5 -25 1 -34
-24 -5 -16 -29 -73 -52 -126 l-43 -96 -143 0 c-83 0 -144 -4 -144 -9 0 -5 4
-21 10 -35 9 -26 10 -26 125 -26 63 0 115 -3 115 -7 0 -8 -117 -228 -147 -276
-14 -22 -23 -40 -21 -42 2 -1 53 -16 113 -33 125 -35 327 -113 332 -129 6 -16
-144 -140 -246 -204 -49 -31 -134 -75 -188 -99 -111 -48 -122 -55 -106 -71 8
-8 42 -3 119 15 219 53 386 118 538 210 90 55 88 55 174 -20 80 -70 152 -72
221 -6 83 79 58 195 -59 275 -18 13 -22 21 -15 31 63 90 114 172 142 232 31
66 39 74 69 80 30 5 63 29 53 38 -2 2 -62 54 -133 115 l-128 110 -82 -74 -81
-75 -97 0 c-54 0 -98 2 -98 5 0 3 9 24 20 45 18 34 25 40 53 40 18 0 42 7 53
15 25 19 18 24 -120 71 l-110 38 69 12 c75 13 150 37 172 55 10 9 13 51 13
178 1 148 2 164 15 147 25 -33 102 -189 115 -232 15 -50 56 -74 127 -74 110 0
182 111 139 214 -39 93 -165 160 -358 191 -24 4 -38 11 -38 20 0 13 35 15 224
15 123 0 238 3 256 6 39 8 48 28 24 56 -29 33 -205 188 -213 188 -4 0 -36 -40
-70 -90 l-64 -90 -78 0 -79 0 0 213 0 213 30 11 c27 10 49 37 38 48 -5 5 -309
35 -355 35 l-33 0 0 -260z m370 -1145 c0 -16 -38 -113 -73 -188 l-41 -89 -96
7 c-122 8 -172 15 -168 24 2 4 32 62 68 129 l65 121 123 1 c67 0 122 -2 122
-5z"/>
<path d="M1605 2502 c-3 -3 -5 -29 -5 -58 0 -63 -24 -297 -46 -443 -33 -223
-90 -478 -148 -666 -35 -112 -20 -116 73 -18 40 42 85 94 99 115 13 21 28 38
32 38 4 0 11 -21 15 -47 18 -128 59 -304 109 -464 14 -44 13 -47 -12 -90 -129
-214 -334 -416 -574 -564 -119 -73 -105 -84 44 -34 249 83 480 214 624 351
l41 39 38 -63 c72 -119 165 -229 255 -304 35 -30 67 -54 70 -54 4 0 17 25 29
55 42 100 129 178 235 210 22 7 42 17 43 22 2 6 -36 32 -84 58 -118 64 -243
151 -327 228 l-70 63 38 62 c80 132 155 320 205 514 17 66 41 202 69 393 l7
50 75 3 c69 3 100 13 100 32 0 5 -65 63 -145 131 -169 141 -142 142 -250 -5
l-70 -95 -107 -1 c-60 0 -108 4 -108 8 0 5 9 35 20 68 19 54 52 166 80 272 8
31 16 42 30 42 20 0 79 45 70 53 -9 8 -450 104 -455 99z m378 -609 c8 -15 -14
-250 -33 -368 -22 -133 -75 -334 -94 -361 -11 -15 -19 -4 -64 87 -27 57 -66
150 -86 207 l-36 103 83 169 82 169 72 1 c39 0 74 -3 76 -7z"/>
<path d="M3470 2497 c0 -3 23 -37 52 -74 63 -84 131 -220 155 -314 16 -65 21
-73 55 -90 111 -56 232 -19 279 86 26 56 24 112 -7 173 -44 89 -135 150 -285
192 -72 20 -249 39 -249 27z"/>
<path d="M1125 2432 c-3 -3 -5 -16 -5 -28 0 -12 -12 -85 -26 -161 -39 -211
-38 -199 -20 -206 19 -8 102 54 218 162 47 45 91 81 98 81 20 0 70 30 70 43 0
12 -325 118 -335 109z"/>
<path d="M313 2423 c-8 -3 -4 -20 12 -58 34 -75 57 -160 64 -230 6 -57 8 -60
46 -82 75 -43 162 -22 205 49 62 102 -24 226 -204 293 -72 26 -107 35 -123 28z"/>
<path d="M4430 2080 l-95 -130 -842 0 c-464 0 -843 -2 -843 -4 0 -3 4 -16 10
-30 l9 -26 242 -2 242 -3 24 -108 c70 -331 195 -630 352 -847 l69 -95 -41 -43
c-182 -190 -550 -402 -909 -525 -27 -10 -21 -27 9 -27 43 0 331 67 454 106
226 72 430 164 584 265 l74 48 59 -49 c149 -124 374 -251 601 -340 58 -22 106
-40 107 -40 2 0 18 30 36 67 57 117 162 204 281 234 51 12 69 36 34 44 -321
68 -591 156 -797 260 l-71 36 56 62 c80 87 195 263 254 387 77 162 123 305
176 548 5 22 7 22 174 22 139 0 171 3 181 15 10 13 9 19 -6 36 -29 33 -312
269 -321 269 -5 0 -51 -58 -103 -130z m-346 -198 c14 -24 -57 -329 -109 -462
-62 -163 -183 -380 -210 -380 -26 0 -252 229 -316 320 -105 148 -219 381 -244
498 l-7 32 441 0 c242 0 442 -4 445 -8z"/>
</g>
</svg>
