<?xml version="1.0" encoding="UTF-8"?>
<svg width="160px" height="160px" viewBox="0 0 160 160" version="1.1" xmlns="http://www.w3.org/2000/svg" xmlns:xlink="http://www.w3.org/1999/xlink">
    <title>banquanbaohu</title>
    <g id="Page-2" stroke="none" stroke-width="1" fill="none" fill-rule="evenodd">
        <g id="banquanbaohu">
            <path d="M62.288,44.924 C62.936,43.808 63.476,42.584 63.944,41.252 C64.772,42.296 65.672,43.628 66.176,44.6 C68.156,43.412 69.884,42.008 71.396,40.316 C72.62,41.972 74.06,43.412 75.68,44.6 C76.472,43.268 78.056,41.36 79.172,40.424 C77.336,39.308 75.716,37.796 74.312,36.032 C76.472,31.964 77.804,26.852 78.416,20.444 L75.284,19.688 L74.456,19.832 L65.996,19.832 L65.996,16.484 C70.388,16.232 75.068,15.764 78.992,14.936 L76.148,10.328 C72.044,11.264 66.32,11.912 61.028,12.2 L61.028,24.152 C61.028,28.94 60.776,36.392 58.544,41.18 L58.544,27.392 L51.668,27.392 C51.704,26.564 51.704,25.772 51.704,25.016 L51.704,24.044 L60.164,24.044 L60.164,19.472 L58.04,19.472 L58.04,10.256 L53.36,10.256 L53.36,19.472 L51.704,19.472 L51.704,11.3 L46.916,11.3 L46.916,25.016 C46.916,29.984 46.7,37.148 44.72,41.36 C45.8,42.044 47.564,43.664 48.356,44.636 C50.336,41.36 51.164,36.644 51.488,31.964 L53.828,31.964 L53.828,44.276 L58.544,44.276 L58.544,42.188 C59.768,42.872 61.46,44.132 62.288,44.924 Z M71.216,30.884 C70.316,28.904 69.56,26.744 68.984,24.548 L73.016,24.548 C72.62,26.816 72.008,28.94 71.216,30.884 Z M64.448,39.56 C65.384,36.068 65.744,32.108 65.924,28.544 C66.644,31.064 67.508,33.476 68.588,35.636 C67.4,37.22 66.032,38.552 64.448,39.56 Z M91.52,44.42 L91.52,29.408 C92.708,30.884 93.896,32.468 94.652,33.656 L97.568,28.796 C97.1583448,28.4049655 95.9396528,27.349365 94.659187,26.2768266 L94.1454774,25.848443 C93.1185541,24.9960095 92.1158621,24.188 91.52,23.756 L91.52,21.848 L95.372,21.848 L95.372,17.024 L91.52,17.024 L91.52,10.22 L86.408,10.22 L86.408,17.024 L81.296,17.024 L81.296,21.848 L85.544,21.848 C84.464,25.952 82.484,30.704 80.144,33.44 C81.044,34.916 82.448,37.4 82.988,38.984 C84.284,37.22 85.436,34.808 86.408,32.108 L86.408,44.42 L91.52,44.42 Z M111.356,44.564 C112.076,43.016 113.696,41.144 115.064,40.1 C112.004,38.444 109.628,36.608 107.72,34.376 C111.068,29.228 113.192,22.532 114.164,13.892 L110.852,12.884 L109.988,13.064 L109.124,13.064 L109.124,13.1 L95.876,13.1 L95.876,18.14 L98.18,18.14 L96.308,18.5 C97.496,25.088 98.936,30.092 101.24,34.196 C99.008,36.716 96.38,38.624 93.32,39.956 C94.436,40.928 95.84,42.944 96.56,44.276 C99.512,42.764 102.104,40.892 104.3,38.624 C106.208,40.82 108.512,42.728 111.356,44.564 Z M104.588,29.48 C103.112,26.42 102.068,22.712 101.24,18.14 L108.512,18.14 C107.72,22.424 106.388,26.24 104.588,29.48 Z M69.92,96.42 L69.92,88.248 C71.756,91.02 73.952,93.504 76.22,95.232 C77.048,93.936 78.74,92.028 79.928,91.056 C77.12,89.4 74.348,86.772 72.332,83.964 L78.812,83.964 L78.812,79.248 L69.92,79.248 L69.92,76.692 L77.192,76.692 L77.192,63.732 L58.004,63.732 L58.004,76.692 L64.664,76.692 L64.664,79.248 L55.772,79.248 L55.772,83.964 L62.252,83.964 C60.2,86.772 57.356,89.364 54.368,90.912 L54.368,70.752 C55.592,68.484 56.672,66.144 57.572,63.876 L52.712,62.292 C50.912,67.26 47.78,72.228 44.576,75.36 C45.44,76.656 46.844,79.536 47.276,80.796 C47.996,80.076 48.716,79.248 49.4,78.384 L49.4,96.312 L54.368,96.312 L54.368,90.984 C55.52,91.992 57.14,93.864 57.932,95.124 C60.416,93.468 62.72,91.164 64.664,88.464 L64.664,96.42 L69.92,96.42 Z M71.936,72.12 L62.936,72.12 L62.936,68.304 L71.936,68.304 L71.936,72.12 Z M83.564,96.168 C85.976,96.168 87.704,95.988 89,95.088 C90.296,94.26 90.62,92.82 90.62,90.444 L90.62,82.704 C91.88,82.344 93.104,82.02 94.328,81.66 L93.68,76.944 L90.62,77.7 L90.62,73.776 L93.896,73.776 L93.896,68.808 L90.62,68.808 L90.62,62.256 L85.508,62.256 L85.508,68.808 L81.224,68.808 L81.224,73.776 L85.508,73.776 L85.508,78.96 C83.708,79.356 82.016,79.752 80.612,80.004 L81.692,85.08 L85.508,84.072 L85.508,90.408 C85.508,90.876 85.364,91.02 84.932,91.02 L84.4345067,91.0193173 C83.85488,91.01744 82.9784,91.0104 82.16,90.984 C82.808,92.46 83.42,94.764 83.564,96.168 Z M95.264,96.564 C98.504,92.928 99.764,87.384 100.232,82.416 L108.764,82.416 L108.764,84.144 L113.948,84.144 L113.948,68.34 L105.92,68.34 L108.476,67.332 C107.972,65.928 106.856,63.876 105.74,62.328 L100.988,64.056 C101.78,65.352 102.644,67.008 103.148,68.34 L95.192,68.34 L95.192,77.268 C95.192,82.056 94.868,88.428 91.052,92.784 C92.204,93.468 94.436,95.484 95.264,96.564 Z M108.764,77.484 L100.448,77.484 L100.448,72.984 L108.764,72.984 L108.764,77.484 Z M62.108,148.888 C65.492,146.764 67.688,144.244 69.092,141.652 C70.784,144.604 73.052,146.908 76.148,148.384 C76.868,147.016 78.38,145.036 79.532,144.028 C75.356,142.48 72.656,139.204 71.216,135.316 L71.252,135.244 L78.884,135.244 L78.884,130.528 L71.54,130.528 L71.54,126.352 L77.984,126.352 L77.984,121.636 L74.276,121.636 C75.212,120.052 76.22,118.108 77.192,116.164 L71.9,114.868 C71.324,116.956 70.244,119.692 69.236,121.636 L65.456,121.636 L68.588,119.98 C67.94,118.468 66.464,116.344 65.06,114.796 L60.884,116.776 C62.072,118.216 63.296,120.124 63.98,121.636 L60.632,121.636 L60.632,126.352 L66.248,126.352 L66.248,130.528 L60.056,130.528 L60.056,135.244 L65.888,135.244 C65.24,138.484 63.404,142.192 58.508,145 L58.508,141.724 L61.172,141.256 L60.848,136.792 L58.508,137.152 L58.508,120.124 L59.66,120.124 L59.66,115.48 L45.368,115.48 L45.368,120.124 L46.664,120.124 L46.664,138.916 L44.828,139.168 L45.872,143.992 L54.116,142.516 L54.116,148.42 L58.508,148.42 L58.508,145.396 C59.804,146.332 61.352,147.844 62.108,148.888 Z M54.116,123.22 L51.236,123.22 L51.236,120.124 L54.116,120.124 L54.116,123.22 Z M54.116,130.492 L51.236,130.492 L51.236,127.432 L54.116,127.432 L54.116,130.492 Z M51.236,138.268 L51.236,134.704 L54.116,134.704 L54.116,137.836 L51.236,138.268 Z M115.028,147.448 L115.028,142.984 L111.068,142.984 L111.068,135.244 L98.072,135.244 C100.088,133.624 101.24,131.464 101.888,129.16 L107.576,129.16 L107.576,130.06 C107.576,130.492 107.396,130.636 106.928,130.636 C106.750118,130.636 106.376913,130.642104 105.918974,130.644258 L105.292209,130.64406 C104.781952,130.640983 104.234353,130.629647 103.76,130.6 C104.408,131.68 105.272,133.516 105.56,134.812 C107.756,134.812 109.52,134.74 110.924,134.02 C112.328,133.336 112.76,132.22 112.76,130.096 L112.76,115.264 L98,115.264 L98,122.428 C98,125.092 97.784,128.188 95.732,130.672 L95.732,115.804 L82.988,115.804 L82.988,132.976 L87.704,132.976 L87.704,131.284 L95.156,131.284 C94.904,131.536 94.616,131.788 94.328,132.004 C95.3,132.652 97.172,134.308 97.928,135.244 L85.22,135.244 L85.22,142.984 L80.972,142.984 L80.972,147.448 L115.028,147.448 Z M107.576,120.664 L102.716,120.664 L102.716,119.26 L107.576,119.26 L107.576,120.664 Z M91.016,121.672 L87.704,121.672 L87.704,119.8 L91.016,119.8 L91.016,121.672 Z M107.576,125.632 L102.572,125.632 C102.608,125.128 102.644,124.624 102.68,124.156 L107.576,124.156 L107.576,125.632 Z M91.016,127.324 L87.704,127.324 L87.704,125.452 L91.016,125.452 L91.016,127.324 Z M92.168,142.984 L90.08,142.984 L90.08,139.24 L92.168,139.24 L92.168,142.984 Z M99.044,142.984 L96.92,142.984 L96.92,139.24 L99.044,139.24 L99.044,142.984 Z M105.956,142.984 L103.796,142.984 L103.796,139.24 L105.956,139.24 L105.956,142.984 Z" id="版权保护联盟" stroke="#979797" fill="#4D4D4D" fill-rule="nonzero"></path>
        </g>
    </g>
</svg>